<?xml version="1.0" encoding="UTF-8" standalone="no"?>
<!DOCTYPE svg PUBLIC "-//W3C//DTD SVG 1.1//EN" "http://www.w3.org/Graphics/SVG/1.1/DTD/svg11.dtd">
<svg xmlns="http://www.w3.org/2000/svg" version="1.1" viewBox="0.00 0.00 102.00 107.00">
<g stroke-width="2.00" fill="none" stroke-linecap="butt">
<path stroke="#9ca99a" vector-effect="non-scaling-stroke" d="
  M 97.41 52.16
  A 45.34 45.34 0.0 0 0 52.07 6.82
  A 45.34 45.34 0.0 0 0 6.73 52.16
  A 45.34 45.34 0.0 0 0 52.07 97.50
  A 45.34 45.34 0.0 0 0 97.41 52.16"
/>
<path stroke="#9ca99a" vector-effect="non-scaling-stroke" d="
  M 46.86 27.30
  L 29.78 27.30
  A 0.39 0.38 90.0 0 0 29.40 27.69
  L 29.40 27.95
  A 0.83 0.82 2.7 0 0 30.15 28.77
  Q 33.41 29.07 34.97 32.03
  Q 40.63 42.79 47.70 55.16
  A 6.93 6.83 -60.6 0 1 48.61 58.51
  Q 48.68 64.81 48.69 73.79
  Q 48.70 78.29 42.84 77.90
  A 0.38 0.38 0.0 0 0 42.44 78.28
  L 42.44 78.65
  A 0.45 0.44 -0.0 0 0 42.89 79.09
  L 61.86 79.09
  A 0.16 0.14 11.7 0 0 62.00 79.01
  L 62.13 78.76
  A 0.50 0.49 15.8 0 0 61.72 78.04
  C 59.54 77.85 56.63 77.53 55.92 75.14
  A 0.80 0.52 47.1 0 1 55.88 74.91
  L 55.86 57.64
  A 4.08 3.94 57.6 0 1 56.19 56.04
  C 57.46 53.19 59.90 49.64 61.11 47.07
  Q 63.46 42.12 66.29 36.76
  C 68.68 32.23 69.44 29.45 74.06 28.73
  A 0.90 0.90 0.0 0 0 74.81 27.99
  L 74.82 27.94
  A 0.56 0.55 4.4 0 0 74.27 27.30
  L 62.40 27.33
  A 0.50 0.49 55.1 0 0 62.23 28.29
  L 64.87 29.29
  A 2.40 2.40 0.0 0 1 66.15 32.64
  L 55.44 53.34
  A 0.43 0.43 0.0 0 1 54.69 53.36
  Q 49.32 44.12 43.99 33.66
  Q 42.85 31.44 42.81 31.19
  C 42.42 28.89 44.99 28.76 46.97 28.33
  A 0.52 0.52 0.0 0 0 46.86 27.30"
/>
</g>
<path fill="#ffffff" d="
  M 102.00 0.00
  L 102.00 107.00
  L 0.00 107.00
  L 0.00 0.00
  L 102.00 0.00
  Z
  M 97.41 52.16
  A 45.34 45.34 0.0 0 0 52.07 6.82
  A 45.34 45.34 0.0 0 0 6.73 52.16
  A 45.34 45.34 0.0 0 0 52.07 97.50
  A 45.34 45.34 0.0 0 0 97.41 52.16
  Z"
/>
<path fill="#395234" d="
  M 97.41 52.16
  A 45.34 45.34 0.0 0 1 52.07 97.50
  A 45.34 45.34 0.0 0 1 6.73 52.16
  A 45.34 45.34 0.0 0 1 52.07 6.82
  A 45.34 45.34 0.0 0 1 97.41 52.16
  Z
  M 46.86 27.30
  L 29.78 27.30
  A 0.39 0.38 90.0 0 0 29.40 27.69
  L 29.40 27.95
  A 0.83 0.82 2.7 0 0 30.15 28.77
  Q 33.41 29.07 34.97 32.03
  Q 40.63 42.79 47.70 55.16
  A 6.93 6.83 -60.6 0 1 48.61 58.51
  Q 48.68 64.81 48.69 73.79
  Q 48.70 78.29 42.84 77.90
  A 0.38 0.38 0.0 0 0 42.44 78.28
  L 42.44 78.65
  A 0.45 0.44 -0.0 0 0 42.89 79.09
  L 61.86 79.09
  A 0.16 0.14 11.7 0 0 62.00 79.01
  L 62.13 78.76
  A 0.50 0.49 15.8 0 0 61.72 78.04
  C 59.54 77.85 56.63 77.53 55.92 75.14
  A 0.80 0.52 47.1 0 1 55.88 74.91
  L 55.86 57.64
  A 4.08 3.94 57.6 0 1 56.19 56.04
  C 57.46 53.19 59.90 49.64 61.11 47.07
  Q 63.46 42.12 66.29 36.76
  C 68.68 32.23 69.44 29.45 74.06 28.73
  A 0.90 0.90 0.0 0 0 74.81 27.99
  L 74.82 27.94
  A 0.56 0.55 4.4 0 0 74.27 27.30
  L 62.40 27.33
  A 0.50 0.49 55.1 0 0 62.23 28.29
  L 64.87 29.29
  A 2.40 2.40 0.0 0 1 66.15 32.64
  L 55.44 53.34
  A 0.43 0.43 0.0 0 1 54.69 53.36
  Q 49.32 44.12 43.99 33.66
  Q 42.85 31.44 42.81 31.19
  C 42.42 28.89 44.99 28.76 46.97 28.33
  A 0.52 0.52 0.0 0 0 46.86 27.30
  Z"
/>
<path fill="#ffffff" d="
  M 46.86 27.30
  A 0.52 0.52 0.0 0 1 46.97 28.33
  C 44.99 28.76 42.42 28.89 42.81 31.19
  Q 42.85 31.44 43.99 33.66
  Q 49.32 44.12 54.69 53.36
  A 0.43 0.43 0.0 0 0 55.44 53.34
  L 66.15 32.64
  A 2.40 2.40 0.0 0 0 64.87 29.29
  L 62.23 28.29
  A 0.50 0.49 55.1 0 1 62.40 27.33
  L 74.27 27.30
  A 0.56 0.55 4.4 0 1 74.82 27.94
  L 74.81 27.99
  A 0.90 0.90 0.0 0 1 74.06 28.73
  C 69.44 29.45 68.68 32.23 66.29 36.76
  Q 63.46 42.12 61.11 47.07
  C 59.90 49.64 57.46 53.19 56.19 56.04
  A 4.08 3.94 57.6 0 0 55.86 57.64
  L 55.88 74.91
  A 0.80 0.52 47.1 0 0 55.92 75.14
  C 56.63 77.53 59.54 77.85 61.72 78.04
  A 0.50 0.49 15.8 0 1 62.13 78.76
  L 62.00 79.01
  A 0.16 0.14 11.7 0 1 61.86 79.09
  L 42.89 79.09
  A 0.45 0.44 0.0 0 1 42.44 78.65
  L 42.44 78.28
  A 0.38 0.38 0.0 0 1 42.84 77.90
  Q 48.70 78.29 48.69 73.79
  Q 48.68 64.81 48.61 58.51
  A 6.93 6.83 -60.6 0 0 47.70 55.16
  Q 40.63 42.79 34.97 32.03
  Q 33.41 29.07 30.15 28.77
  A 0.83 0.82 2.7 0 1 29.40 27.95
  L 29.40 27.69
  A 0.39 0.38 -90.0 0 1 29.78 27.30
  L 46.86 27.30
  Z"
/>
</svg>
